<?xml version="1.0" ?><svg id="Layer_1" style="enable-background:new 0 0 74 74;" version="1.1" viewBox="0 0 74 74" xml:space="preserve" xmlns="http://www.w3.org/2000/svg" xmlns:xlink="http://www.w3.org/1999/xlink"><style type="text/css">
	.st0{fill:#2B3033;}
</style><g><path class="st0" d="M70.2,69h-4.7V32c0-1-0.7-1.8-1.7-2l-15.4-2.3V11.4c0-1.1-0.9-2-2-2h-4.5V3c0-1.1-0.9-2-2-2H12.7   c-1.1,0-2,0.9-2,2v6.4H6.2c-1.1,0-2,0.9-2,2V69H3.8c-1.1,0-2,0.9-2,2s0.9,2,2,2h66.4c1.1,0,2-0.9,2-2S71.3,69,70.2,69z M14.7,5   h23.2v4.4H14.7V5z M8.2,13.4h4.5h27.2h4.5V69H8.2V13.4z M48.4,69V31.8l13.1,1.9V69H48.4z"/><path class="st0" d="M22.4,18.6h-7.6c-1.1,0-2,0.9-2,2v7.6c0,1.1,0.9,2,2,2s2-0.9,2-2v-5.6h5.6c1.1,0,2-0.9,2-2   S23.5,18.6,22.4,18.6z"/><path class="st0" d="M37.7,18.6h-7.6c-1.1,0-2,0.9-2,2v7.6c0,1.1,0.9,2,2,2s2-0.9,2-2v-5.6h5.6c1.1,0,2-0.9,2-2   S38.8,18.6,37.7,18.6z"/><path class="st0" d="M22.4,35.4h-7.6c-1.1,0-2,0.9-2,2V45c0,1.1,0.9,2,2,2s2-0.9,2-2v-5.6h5.6c1.1,0,2-0.9,2-2S23.5,35.4,22.4,35.4   z"/><path class="st0" d="M37.7,35.4h-7.6c-1.1,0-2,0.9-2,2V45c0,1.1,0.9,2,2,2s2-0.9,2-2v-5.6h5.6c1.1,0,2-0.9,2-2S38.8,35.4,37.7,35.4   z"/><path class="st0" d="M22.4,52.2h-7.6c-1.1,0-2,0.9-2,2v7.6c0,1.1,0.9,2,2,2s2-0.9,2-2v-5.6h5.6c1.1,0,2-0.9,2-2   S23.5,52.2,22.4,52.2z"/><path class="st0" d="M37.7,52.2h-7.6c-1.1,0-2,0.9-2,2v7.6c0,1.1,0.9,2,2,2s2-0.9,2-2v-5.6h5.6c1.1,0,2-0.9,2-2   S38.8,52.2,37.7,52.2z"/></g></svg>